<svg xmlns="http://www.w3.org/2000/svg" width="1024" height="1024" viewBox="0 0 1024 1024"><rect x="0" y="0" width="1024" height="1024" fill="#2F5E3E"/><g transform="translate(512,512) scale(307.2)"><path d="M 0,-1 C 0.30,-0.74 0.60,-0.30 0.60,0.16 C 0.60,0.63 0.34,1 0,1 C -0.34,1 -0.60,0.63 -0.60,0.16 C -0.60,-0.30 -0.30,-0.74 0,-1 Z" fill="#F0EBDE" stroke="#264C32" stroke-width="0.035" stroke-linejoin="round"/><path d="M 0.000,-0.82 C 0.000,-0.246 0.000,0.264 0.000,0.88" fill="none" stroke="#2F5E3E" stroke-width="0.040" stroke-linecap="round"/><path d="M 0.135,-0.72 C 0.159,-0.216 0.159,0.246 0.123,0.82" fill="none" stroke="#2F5E3E" stroke-width="0.040" stroke-linecap="round"/><path d="M -0.135,-0.72 C -0.159,-0.216 -0.159,0.246 -0.123,0.82" fill="none" stroke="#2F5E3E" stroke-width="0.040" stroke-linecap="round"/><path d="M 0.270,-0.58 C 0.318,-0.174 0.318,0.216 0.246,0.72" fill="none" stroke="#2F5E3E" stroke-width="0.040" stroke-linecap="round"/><path d="M -0.270,-0.58 C -0.318,-0.174 -0.318,0.216 -0.246,0.72" fill="none" stroke="#2F5E3E" stroke-width="0.040" stroke-linecap="round"/><path d="M 0.396,-0.4 C 0.466,-0.120 0.466,0.174 0.361,0.58" fill="none" stroke="#2F5E3E" stroke-width="0.040" stroke-linecap="round"/><path d="M -0.396,-0.4 C -0.466,-0.120 -0.466,0.174 -0.361,0.58" fill="none" stroke="#2F5E3E" stroke-width="0.040" stroke-linecap="round"/></g></svg>
